<?xml version="1.0" encoding="UTF-8"?>
<svg id="Camada_1" xmlns="http://www.w3.org/2000/svg" version="1.1" xmlns:serif="http://www.serif.com/" xmlns:xlink="http://www.w3.org/1999/xlink" viewBox="0 0 456 456">
  <!-- Generator: Adobe Illustrator 29.3.1, SVG Export Plug-In . SVG Version: 2.1.0 Build 151)  -->
  <defs>
    <style>
      .st0 {
        fill: #fff;
      }
    </style>
  </defs>
  <path class="st0" d="M61.6,201.3v65.2c0,2.1,1.3,4.1,3.1,5.2l47.4,27.3-28.6,16.7c-1.9,1.1-3,3.1-3,5.2s1.2,4.1,3,5.2l3.5,2c-.1,1.3-.2,2.7-.2,4,0,14.8,8.2,26.3,18.7,26.3s11.9-4.2,15.2-10.8l75.9,43.8c.9.5,2,.8,3,.8s0,0,.1,0c-.3,1.8-.4,3.6-.4,5.5,0,14.8,8.2,26.3,18.7,26.3s18.7-11.6,18.7-26.3-3.1-16.8-7.8-21.5l65.1-37.6c-.2,1.5-.3,3.1-.3,4.8,0,14.8,8.2,26.3,18.7,26.3s18.7-11.6,18.7-26.3-3.1-16.9-7.9-21.6l11.3-6.5c1.9-1.1,3-3.1,3-5.2v-64.8l18.6-96.4,17.5-30.4,17.5-10.1c1.9-1.1,3-3.1,3-5.2s-1.1-4.1-3-5.2l-113.2-65.4c-1.9-1.1-4.2-1.1-6,0l-18.9,10.9c-.9.5-1.7,1.3-2.2,2.2l-18.2,31.5-168.8,119.1c-1.6,1.1-2.5,3-2.5,4.9h0ZM306,343.5c0-8.6,4-14.3,6.7-14.3s6.7,5.7,6.7,14.3-4,14.3-6.7,14.3-6.7-5.7-6.7-14.3ZM186.9,321.4v-51.7s79.2-55.9,79.2-55.9l53.6,31-132.8,76.6ZM339.5,147.2l-74,52.3-40.1-23.2,16.5-85.5,97.7,56.4ZM136.3,233.9l82.3-47.5,36,20.8-74,52.3-44.3-25.5ZM341.9,160.3l-14.4,75-50.5-29.2,65-45.9ZM174.9,270v51.4s-95.1-54.9-95.1-54.9l44.5-25.7,50.7,29.2ZM73.7,256.1v-44.4c0,0,38.5,22.2,38.5,22.2l-38.5,22.2ZM78.8,200.8l150-105.8-15.5,80.6-89,51.4-45.5-26.2ZM258.6,57l102.7,59.3-12.8,22.2-102.7-59.3,12.8-22.2ZM369.5,107.1l-101.1-58.4,6.8-4,101.1,58.4-6.8,3.9ZM325.8,306.6l-69.4,40.1-44.6-25.7,114-65.8v51.4h0ZM211.5,397.9c0-8.6,4-14.3,6.7-14.3s6.7,5.7,6.7,14.3-4,14.3-6.7,14.3-6.7-5.7-6.7-14.3ZM112.1,328.7l-11-6.4c1.4-2.8,3.2-4.4,4.6-4.4,2.3,0,5.6,4.2,6.5,10.8ZM99.1,335.1l11.3,6.5c-1.4,3.1-3.3,4.8-4.8,4.8-2.4,0-5.8-4.4-6.5-11.4ZM124.1,306l53.8,31c.9.5,2,.8,3,.8s2.1-.3,3-.8h0s0,0,0,0h0s15.8-9.1,15.8-9.1l44.6,25.8-44.6,25.7-75.6-43.6c.1-1.1.2-2.3.2-3.5,0-9.1-3.1-17-8-21.7l7.8-4.5Z"/>
</svg>