<?xml version="1.0" encoding="UTF-8"?>
<svg id="Camada_1" xmlns="http://www.w3.org/2000/svg" version="1.1" xmlns:serif="http://www.serif.com/" xmlns:xlink="http://www.w3.org/1999/xlink" viewBox="0 0 456 456">
  <!-- Generator: Adobe Illustrator 29.3.1, SVG Export Plug-In . SVG Version: 2.1.0 Build 151)  -->
  <defs>
    <style>
      .st0 {
        fill: #fff;
      }
    </style>
  </defs>
  <path class="st0" d="M120.6,210.8v42.1c0,1.4.8,2.7,2,3.4l30.6,17.6-18.4,10.8c-1.2.7-1.9,2-1.9,3.4s.7,2.7,1.9,3.4l2.3,1.3c0,.8-.1,1.7-.1,2.6,0,9.5,5.3,17,12.1,17s7.7-2.7,9.8-7l49,28.3c.6.3,1.3.5,1.9.5s0,0,0,0c-.2,1.1-.3,2.3-.3,3.6,0,9.5,5.3,17,12.1,17s12.1-7.5,12.1-17-2-10.8-5.1-13.9l42.1-24.3c-.1,1-.2,2-.2,3.1,0,9.5,5.3,17,12.1,17s12.1-7.5,12.1-17-2-10.9-5.1-14l7.3-4.2c1.2-.7,1.9-2,1.9-3.4v-41.8l12-62.3,11.3-19.6,11.3-6.5c1.2-.7,1.9-2,1.9-3.4s-.7-2.7-1.9-3.4l-73.1-42.2c-1.2-.7-2.7-.7-3.9,0l-12.2,7c-.6.3-1.1.8-1.4,1.4l-11.7,20.3-109,76.9c-1,.7-1.6,1.9-1.6,3.2h0ZM278.3,302.6c0-5.5,2.6-9.2,4.3-9.2s4.3,3.7,4.3,9.2-2.6,9.2-4.3,9.2-4.3-3.7-4.3-9.2ZM201.5,288.3v-33.4s51.1-36.1,51.1-36.1l34.6,20-85.8,49.5ZM300,175.9l-47.8,33.7-25.9-15,10.6-55.2,63.1,36.4ZM168.8,231.8l53.2-30.7,23.2,13.4-47.8,33.7-28.6-16.5ZM301.6,184.3l-9.3,48.4-32.6-18.8,42-29.6ZM193.7,255.1v33.2s-61.4-35.4-61.4-35.4l28.7-16.6,32.7,18.8ZM128.4,246.2v-28.7c0,0,24.8,14.3,24.8,14.3l-24.8,14.3ZM131.7,210.4l96.8-68.3-10,52.1-57.5,33.2-29.3-16.9ZM247.7,117.6l66.3,38.3-8.3,14.4-66.3-38.3,8.3-14.4ZM319.4,150l-65.3-37.7,4.4-2.6,65.3,37.7-4.4,2.5ZM291.1,278.8l-44.8,25.9-28.8-16.6,73.6-42.5v33.2h0ZM217.4,337.7c0-5.5,2.6-9.2,4.3-9.2s4.3,3.7,4.3,9.2-2.6,9.2-4.3,9.2-4.3-3.7-4.3-9.2ZM153.2,293l-7.1-4.1c.9-1.8,2-2.8,3-2.8,1.5,0,3.6,2.7,4.2,7ZM144.8,297.2l7.3,4.2c-.9,2-2.1,3.1-3.1,3.1-1.5,0-3.7-2.9-4.2-7.4ZM160.9,278.4l34.7,20c.6.3,1.3.5,1.9.5s1.3-.2,1.9-.5h0s0,0,0,0h0s10.2-5.9,10.2-5.9l28.8,16.6-28.8,16.6-48.8-28.2c0-.7.1-1.5.1-2.3,0-5.9-2-11-5.2-14l5-2.9Z"/>
</svg>